<svg width="128" height="37" viewBox="0 0 128 37" fill="none" xmlns="http://www.w3.org/2000/svg">
<path d="M15.4398 6.56274H12.7258V7.63233H15.4398V6.56274Z" fill="black"/>
<path d="M15.4398 8.7019H12.7258V9.77149H15.4398V8.7019Z" fill="black"/>
<path d="M15.4398 10.8411H12.7258V11.9106H15.4398V10.8411Z" fill="black"/>
<path d="M24.9386 7.09753H23.5816C23.5812 7.3811 23.4381 7.65296 23.1837 7.85347C22.9293 8.05399 22.5844 8.16678 22.2246 8.16712V9.2367C22.9441 9.23607 23.634 9.01048 24.1428 8.60945C24.6516 8.20842 24.9377 7.66468 24.9386 7.09753Z" fill="black"/>
<path d="M28.3311 9.77149V8.70191C27.9714 8.70157 27.6265 8.58878 27.3721 8.38826C27.1177 8.18775 26.9746 7.91589 26.9742 7.63232H25.6172C25.618 8.19947 25.9042 8.74321 26.413 9.14424C26.9218 9.54527 27.6116 9.77086 28.3311 9.77149Z" fill="black"/>
<path d="M35.4546 33.0505C34.3092 33.2146 33.1408 33.2558 31.9814 33.1728L20.1842 32.3274C19.9946 32.3138 19.8189 32.2431 19.6937 32.13C19.5685 32.0169 19.5035 31.8702 19.5121 31.7202C19.5206 31.5703 19.6022 31.4287 19.7398 31.325C19.8774 31.2212 20.0605 31.1633 20.2509 31.1632H29.3489C29.7988 31.1626 30.2301 31.0214 30.5481 30.7705C30.866 30.5196 31.0448 30.1796 31.0451 29.8249V29.8124C31.0443 29.5314 30.9287 29.2581 30.7153 29.033L29.1618 27.4011C29.0633 27.2972 29.0099 27.1711 29.0096 27.0415V26.9498C29.0096 26.8312 29.0542 26.7152 29.1378 26.6166C29.2214 26.518 29.3402 26.4411 29.4792 26.3957C29.6183 26.3504 29.7712 26.3385 29.9188 26.3616C30.0664 26.3848 30.2019 26.4419 30.3083 26.5257L33.2793 28.8674C33.3423 28.9171 33.4171 28.9565 33.4994 28.9833C33.5817 29.0102 33.6699 29.024 33.759 29.024H41.2224V27.9544H34.04L31.268 25.7693C31.1982 25.7145 31.1237 25.6635 31.0451 25.6167V13.5151C31.0451 13.3732 30.9736 13.2372 30.8464 13.1369C30.7191 13.0366 30.5465 12.9803 30.3666 12.9803H29.6881V11.3759H30.7058C31.3357 11.3759 31.9397 11.1787 32.385 10.8277C32.8304 10.4766 33.0806 10.0005 33.0806 9.50412C33.0806 9.00769 32.8304 8.5316 32.385 8.18057C31.9397 7.82955 31.3357 7.63234 30.7058 7.63234H30.6357C30.9754 7.31152 31.1501 6.90194 31.1252 6.48452C31.1004 6.06711 30.8778 5.67222 30.5015 5.37786C30.1253 5.0835 29.6226 4.91108 29.0928 4.89467C28.5631 4.87826 28.0448 5.01905 27.6404 5.28922C27.5762 4.7595 27.2638 4.26766 26.7642 3.90973C26.2647 3.55179 25.6138 3.35346 24.9387 3.35346C24.2636 3.35346 23.6127 3.55179 23.1132 3.90973C22.6136 4.26766 22.3013 4.7595 22.2371 5.28922C21.8326 5.01905 21.3143 4.87826 20.7846 4.89467C20.2548 4.91108 19.7522 5.0835 19.3759 5.37786C18.9996 5.67222 18.777 6.06711 18.7522 6.48452C18.7273 6.90194 18.902 7.31152 19.2417 7.63234H19.1716C18.8195 7.63209 18.4717 7.69392 18.1538 7.8133V5.49318C18.1538 4.64216 17.7249 3.826 16.9615 3.22425C16.1981 2.62249 15.1626 2.28442 14.0829 2.28442C13.0032 2.28442 11.9678 2.62249 11.2043 3.22425C10.4409 3.826 10.012 4.64216 10.012 5.49318V12.9803H9.33351C9.15357 12.9803 8.98099 13.0366 8.85375 13.1369C8.72651 13.2372 8.65503 13.3732 8.65503 13.5151V15.8667L5.01164 18.3282H0.513184V19.3978H5.26259C5.42454 19.3978 5.58115 19.3521 5.70412 19.269L9.63663 16.6122C10.0409 16.3392 10.5557 16.1891 11.088 16.189C11.1436 16.189 11.1979 16.202 11.2441 16.2264C11.2903 16.2507 11.3263 16.2853 11.3476 16.3258C11.3688 16.3662 11.3744 16.4108 11.3635 16.4537C11.3527 16.4967 11.3259 16.5361 11.2866 16.5671L8.85374 18.4848C8.75884 18.5596 8.69422 18.6549 8.66804 18.7586C8.64186 18.8624 8.65529 18.9699 8.70665 19.0676C8.758 19.1654 8.84497 19.2489 8.95655 19.3076C9.06813 19.3664 9.19932 19.3978 9.33351 19.3978H16.4576C16.5476 19.3978 16.6339 19.4259 16.6975 19.4761C16.7611 19.5262 16.7969 19.5942 16.7969 19.6652C16.7969 19.7361 16.7611 19.8041 16.6975 19.8542C16.6339 19.9044 16.5476 19.9326 16.4576 19.9326H11.369C11.189 19.9326 11.0165 19.9889 10.8892 20.0892C10.762 20.1895 10.6905 20.3255 10.6905 20.4674C10.6905 20.6092 10.762 20.7452 10.8892 20.8455C11.0165 20.9458 11.189 21.0021 11.369 21.0021H18.4931C18.5831 21.0021 18.6693 21.0303 18.733 21.0805C18.7966 21.1306 18.8323 21.1986 18.8323 21.2695C18.8323 21.3405 18.7966 21.4085 18.733 21.4586C18.6693 21.5088 18.5831 21.5369 18.4931 21.5369H11.369C11.189 21.5369 11.0165 21.5933 10.8892 21.6936C10.762 21.7939 10.6905 21.9299 10.6905 22.0717C10.6905 22.2136 10.762 22.3496 10.8892 22.4499C11.0165 22.5502 11.189 22.6065 11.369 22.6065H17.1361C17.2261 22.6065 17.3124 22.6347 17.376 22.6848C17.4396 22.735 17.4754 22.803 17.4754 22.8739C17.4754 22.9448 17.4396 23.0128 17.376 23.063C17.3124 23.1131 17.2261 23.1413 17.1361 23.1413H11.369C11.189 23.1413 11.0165 23.1977 10.8892 23.298C10.762 23.3982 10.6905 23.5343 10.6905 23.6761C10.6905 23.8179 10.762 23.954 10.8892 24.0543C11.0165 24.1546 11.189 24.2109 11.369 24.2109H14.719C14.7294 24.2113 14.7393 24.2147 14.7467 24.2205C14.7541 24.2263 14.7586 24.234 14.7592 24.2422C14.7599 24.2504 14.7567 24.2585 14.7502 24.265C14.7437 24.2715 14.7345 24.2758 14.7242 24.2772L10.0651 24.7363L5.44917 23.6967C5.3885 23.683 5.3257 23.6761 5.26259 23.6761H0.513184V24.7457H5.1676L8.65503 25.5311V30.6284H8.65664C8.656 30.6987 8.67305 30.7683 8.70682 30.8334C8.74059 30.8984 8.7904 30.9575 8.85336 31.0072C8.91632 31.057 8.99118 31.0964 9.0736 31.1232C9.15602 31.1499 9.24437 31.1635 9.33351 31.1632H18.2895C18.1753 31.4015 18.1326 31.6573 18.1646 31.9108C18.1966 32.1642 18.3025 32.4084 18.4741 32.6242C18.6456 32.8401 18.8781 33.0218 19.1535 33.155C19.4289 33.2883 19.7396 33.3696 20.0614 33.3926L31.8585 34.2382C32.2878 34.2691 32.7178 34.2845 33.1484 34.2844C34.0032 34.2844 34.8563 34.2238 35.6973 34.1033L41.3438 33.2941L41.101 32.2417L35.4546 33.0505ZM16.7969 10.8411C16.7971 10.6993 16.8686 10.5634 16.9958 10.4631C17.123 10.3629 17.2955 10.3065 17.4754 10.3063H18.8323C19.5519 10.3069 20.2417 10.5325 20.7505 10.9336C21.2593 11.3346 21.5455 11.8783 21.5463 12.4455C21.5461 12.5873 21.4745 12.7232 21.3473 12.8235C21.2201 12.9237 21.0477 12.9801 20.8678 12.9803H19.5108C18.7913 12.9796 18.1014 12.754 17.5927 12.353C17.0839 11.952 16.7977 11.4082 16.7969 10.8411ZM19.1716 8.70193H20.8678C21.002 8.70193 21.1332 8.67057 21.2447 8.61181C21.3563 8.55304 21.4433 8.46952 21.4946 8.3718C21.546 8.27407 21.5594 8.16654 21.5333 8.0628C21.5071 7.95906 21.4425 7.86376 21.3476 7.78897L20.3298 6.98678C20.2592 6.9311 20.2031 6.86499 20.1649 6.79224C20.1267 6.71949 20.107 6.64151 20.107 6.56276C20.107 6.48401 20.1267 6.40603 20.1649 6.33328C20.2031 6.26053 20.2592 6.19442 20.3298 6.13874C20.4005 6.08305 20.4843 6.03888 20.5766 6.00875C20.669 5.97861 20.7679 5.9631 20.8678 5.9631C20.9677 5.9631 21.0666 5.97861 21.1589 6.00875C21.2512 6.03888 21.3351 6.08305 21.4057 6.13874L22.4235 6.94093C22.5184 7.01572 22.6393 7.06666 22.7709 7.0873C22.9025 7.10793 23.0389 7.09734 23.1629 7.05686C23.2869 7.01638 23.3928 6.94783 23.4674 6.85989C23.542 6.77194 23.5817 6.66854 23.5817 6.56276V5.49318C23.5817 5.2095 23.7247 4.93745 23.9792 4.73687C24.2337 4.53628 24.5788 4.42359 24.9387 4.42359C25.2986 4.42359 25.6438 4.53628 25.8982 4.73687C26.1527 4.93745 26.2957 5.2095 26.2957 5.49318V6.56276C26.2957 6.66854 26.3355 6.77194 26.41 6.85989C26.4846 6.94783 26.5905 7.01638 26.7145 7.05686C26.8385 7.09734 26.9749 7.10793 27.1065 7.0873C27.2382 7.06666 27.3591 7.01572 27.4539 6.94093L28.4717 6.13874C28.5423 6.08305 28.6262 6.03888 28.7185 6.00875C28.8108 5.97861 28.9097 5.9631 29.0096 5.9631C29.1095 5.9631 29.2085 5.97861 29.3008 6.00875C29.3931 6.03888 29.4769 6.08305 29.5476 6.13874C29.6182 6.19442 29.6743 6.26053 29.7125 6.33328C29.7507 6.40603 29.7704 6.48401 29.7704 6.56276C29.7704 6.64151 29.7507 6.71949 29.7125 6.79224C29.6743 6.86499 29.6182 6.9311 29.5476 6.98678L28.5299 7.78897C28.435 7.86376 28.3703 7.95906 28.3442 8.0628C28.318 8.16654 28.3314 8.27407 28.3828 8.3718C28.4341 8.46952 28.5211 8.55304 28.6327 8.61181C28.7443 8.67057 28.8754 8.70193 29.0096 8.70193H30.7058C30.9758 8.70193 31.2346 8.78644 31.4255 8.93688C31.6164 9.08732 31.7236 9.29136 31.7236 9.50412C31.7236 9.71687 31.6164 9.92091 31.4255 10.0713C31.2346 10.2218 30.9758 10.3063 30.7058 10.3063H29.0096C28.8297 10.3063 28.6571 10.3626 28.5299 10.4629C28.4026 10.5632 28.3311 10.6993 28.3311 10.8411V11.1259C27.5395 10.5655 26.5004 10.2723 25.4373 10.3095C24.3743 10.3466 23.3721 10.7111 22.6464 11.3245C22.3557 10.7119 21.8348 10.1839 21.1533 9.81084C20.4718 9.43779 19.6621 9.23751 18.8323 9.23672H18.2132C18.2834 9.08052 18.4132 8.94527 18.5848 8.84952C18.7564 8.75377 18.9613 8.70222 19.1716 8.70193ZM28.2452 12.9803H22.9892C23.1394 12.5209 23.4791 12.1139 23.9548 11.8233C24.4306 11.5328 25.0153 11.3751 25.6172 11.3751C26.219 11.3751 26.8038 11.5328 27.2796 11.8233C27.7553 12.1139 28.095 12.5209 28.2452 12.9803ZM11.369 5.49318C11.369 4.92583 11.6549 4.38173 12.1639 3.98056C12.6728 3.57938 13.3631 3.35401 14.0829 3.35401C14.8027 3.35401 15.493 3.57938 16.002 3.98056C16.5109 4.38173 16.7969 4.92583 16.7969 5.49318V9.3287C16.4003 9.43961 16.057 9.64451 15.8141 9.91528C15.5711 10.1861 15.4404 10.5094 15.4399 10.8411C15.4392 11.6309 15.8096 12.393 16.4798 12.9803H11.369V5.49318ZM12.7259 14.0498H14.0829V18.3282H12.7259V14.0498ZM11.088 15.1194C10.723 15.1196 10.3601 15.1636 10.012 15.2501V14.0498H11.369V15.1398C11.2762 15.1267 11.1822 15.1199 11.088 15.1194ZM11.369 18.0149V18.3282H10.9715L11.369 18.0149ZM12.7259 25.552L14.0829 25.4183V29.3372L12.7259 28.2676V25.552ZM10.0961 25.8111L11.369 25.6857V28.2677L10.012 29.3373V25.8153C10.0401 25.8153 10.0682 25.8139 10.0961 25.8111ZM10.9715 30.0936L12.0475 29.2455L13.1235 30.0936H10.9715ZM15.4399 25.188C15.6465 25.09 15.8175 24.9516 15.9364 24.7863C16.0552 24.621 16.1179 24.4342 16.1184 24.2442C16.1184 24.233 16.1184 24.2219 16.1177 24.2108H17.1361C17.3899 24.2107 17.6404 24.1657 17.8692 24.0792C18.098 23.9927 18.2993 23.8668 18.4583 23.7109C18.6172 23.555 18.7297 23.3729 18.7876 23.1781C18.8455 22.9834 18.8472 22.7809 18.7926 22.5855C19.2098 22.5266 19.5839 22.3466 19.8412 22.0811C20.0985 21.8156 20.2204 21.4838 20.1828 21.151C20.1452 20.8182 19.9509 20.5086 19.6382 20.2831C19.3255 20.0576 18.9169 19.9325 18.4931 19.9326H18.1199C18.17 19.7383 18.1647 19.5377 18.1044 19.3453C18.0441 19.1528 17.9303 18.9734 17.7712 18.8198C17.6121 18.6663 17.4118 18.5425 17.1846 18.4575C16.9574 18.3725 16.7091 18.3283 16.4576 18.3282H15.4399V14.0498H29.6881V25.2822C29.1414 25.2994 28.6243 25.4826 28.245 25.7934C27.8656 26.1042 27.6534 26.5185 27.6527 26.9498V27.0415C27.6536 27.4026 27.8023 27.7539 28.0767 28.0431L29.6301 29.6749C29.6678 29.7146 29.6882 29.7628 29.6884 29.8124V29.8249C29.6885 29.896 29.6528 29.9643 29.5891 30.0146C29.5255 30.065 29.4391 30.0934 29.3489 30.0936H15.4399V25.188Z" fill="black"/>
<path d="M56.9224 14.2844V3.62036H59.9326C60.8604 3.62036 61.6807 3.82544 62.3936 4.2356C63.1064 4.64575 63.6558 5.22925 64.0415 5.98608C64.4321 6.74292 64.6299 7.61206 64.6348 8.59351V9.27466C64.6348 10.2805 64.4395 11.1619 64.0488 11.9187C63.6631 12.6755 63.1089 13.2566 62.3862 13.6619C61.6685 14.0671 60.8311 14.2747 59.874 14.2844H56.9224ZM58.3286 4.77759V13.1345H59.8081C60.8921 13.1345 61.7344 12.7976 62.335 12.1238C62.9404 11.45 63.2432 10.4905 63.2432 9.24536V8.6228C63.2432 7.41187 62.9575 6.47192 62.3862 5.80298C61.8198 5.12915 61.0142 4.78735 59.9692 4.77759H58.3286ZM69.8423 14.4309C68.7681 14.4309 67.894 14.0793 67.2202 13.3762C66.5464 12.6682 66.2095 11.7234 66.2095 10.5417V10.2927C66.2095 9.50659 66.3584 8.80591 66.6562 8.19067C66.959 7.57056 67.3789 7.08716 67.916 6.74048C68.458 6.38892 69.0439 6.21313 69.6738 6.21313C70.7041 6.21313 71.5049 6.55249 72.0762 7.2312C72.6475 7.90991 72.9331 8.88159 72.9331 10.1462V10.7102H67.5645C67.584 11.4915 67.811 12.1238 68.2456 12.6072C68.6851 13.0857 69.2417 13.325 69.9155 13.325C70.394 13.325 70.7993 13.2273 71.1313 13.032C71.4634 12.8367 71.7539 12.5779 72.0029 12.2556L72.8306 12.9001C72.1665 13.9207 71.1704 14.4309 69.8423 14.4309ZM69.6738 7.32642C69.127 7.32642 68.668 7.52661 68.2969 7.927C67.9258 8.32251 67.6963 8.87915 67.6084 9.59692H71.5781V9.49438C71.5391 8.80591 71.3535 8.27368 71.0215 7.89771C70.6895 7.51685 70.2402 7.32642 69.6738 7.32642ZM75.98 14.2844H74.625V3.03442H75.98V14.2844ZM79.6274 14.2844H78.2725V6.35962H79.6274V14.2844ZM78.1626 4.25757C78.1626 4.03784 78.2285 3.85229 78.3604 3.70093C78.4971 3.54956 78.6973 3.47388 78.9609 3.47388C79.2246 3.47388 79.4248 3.54956 79.5615 3.70093C79.6982 3.85229 79.7666 4.03784 79.7666 4.25757C79.7666 4.47729 79.6982 4.6604 79.5615 4.80688C79.4248 4.95337 79.2246 5.02661 78.9609 5.02661C78.6973 5.02661 78.4971 4.95337 78.3604 4.80688C78.2285 4.6604 78.1626 4.47729 78.1626 4.25757ZM84.4175 12.446L86.3804 6.35962H87.7646L84.9229 14.2844H83.8901L81.019 6.35962H82.4033L84.4175 12.446ZM92.2544 14.4309C91.1802 14.4309 90.3062 14.0793 89.6323 13.3762C88.9585 12.6682 88.6216 11.7234 88.6216 10.5417V10.2927C88.6216 9.50659 88.7705 8.80591 89.0684 8.19067C89.3711 7.57056 89.791 7.08716 90.3281 6.74048C90.8701 6.38892 91.4561 6.21313 92.0859 6.21313C93.1162 6.21313 93.917 6.55249 94.4883 7.2312C95.0596 7.90991 95.3452 8.88159 95.3452 10.1462V10.7102H89.9766C89.9961 11.4915 90.2231 12.1238 90.6577 12.6072C91.0972 13.0857 91.6538 13.325 92.3276 13.325C92.8062 13.325 93.2114 13.2273 93.5435 13.032C93.8755 12.8367 94.166 12.5779 94.415 12.2556L95.2427 12.9001C94.5786 13.9207 93.5825 14.4309 92.2544 14.4309ZM92.0859 7.32642C91.5391 7.32642 91.0801 7.52661 90.709 7.927C90.3379 8.32251 90.1084 8.87915 90.0205 9.59692H93.9902V9.49438C93.9512 8.80591 93.7656 8.27368 93.4336 7.89771C93.1016 7.51685 92.6523 7.32642 92.0859 7.32642ZM100.75 7.57544C100.545 7.54126 100.323 7.52417 100.084 7.52417C99.1953 7.52417 98.5923 7.90259 98.2749 8.65942V14.2844H96.9199V6.35962H98.2383L98.2603 7.27515C98.7046 6.56714 99.3345 6.21313 100.15 6.21313C100.414 6.21313 100.614 6.24731 100.75 6.31567V7.57544ZM104.728 12.2996L106.573 6.35962H108.023L104.837 15.5076C104.344 16.8259 103.561 17.4851 102.486 17.4851L102.23 17.4631L101.725 17.3679V16.2693L102.091 16.2986C102.55 16.2986 102.906 16.2058 103.16 16.0203C103.419 15.8347 103.631 15.4954 103.797 15.0022L104.098 14.1965L101.271 6.35962H102.75L104.728 12.2996ZM62.8037 27.575H58.3286V32.2844H56.9224V21.6204H63.5288V22.7776H58.3286V26.425H62.8037V27.575ZM64.481 28.2488C64.481 27.4724 64.6323 26.7742 64.9351 26.1541C65.2427 25.5339 65.6675 25.0554 66.2095 24.7185C66.7563 24.3816 67.3789 24.2131 68.0771 24.2131C69.1562 24.2131 70.0278 24.5867 70.6919 25.3337C71.3608 26.0808 71.6953 27.0745 71.6953 28.3147V28.4099C71.6953 29.1814 71.5464 29.8748 71.2485 30.49C70.9556 31.1003 70.5332 31.5764 69.9814 31.9182C69.4346 32.26 68.8047 32.4309 68.0918 32.4309C67.0176 32.4309 66.146 32.0574 65.4771 31.3103C64.813 30.5632 64.481 29.5745 64.481 28.344V28.2488ZM65.8433 28.4099C65.8433 29.2888 66.0459 29.9944 66.4512 30.5266C66.8613 31.0588 67.4082 31.325 68.0918 31.325C68.7803 31.325 69.3271 31.0564 69.7324 30.5193C70.1377 29.9773 70.3403 29.2205 70.3403 28.2488C70.3403 27.3796 70.1328 26.6765 69.7178 26.1394C69.3076 25.5974 68.7607 25.3264 68.0771 25.3264C67.4082 25.3264 66.8687 25.5925 66.4585 26.1248C66.0483 26.657 65.8433 27.4187 65.8433 28.4099ZM73.0356 28.2488C73.0356 27.4724 73.187 26.7742 73.4897 26.1541C73.7974 25.5339 74.2222 25.0554 74.7642 24.7185C75.311 24.3816 75.9336 24.2131 76.6318 24.2131C77.7109 24.2131 78.5825 24.5867 79.2466 25.3337C79.9155 26.0808 80.25 27.0745 80.25 28.3147V28.4099C80.25 29.1814 80.1011 29.8748 79.8032 30.49C79.5103 31.1003 79.0879 31.5764 78.5361 31.9182C77.9893 32.26 77.3594 32.4309 76.6465 32.4309C75.5723 32.4309 74.7007 32.0574 74.0317 31.3103C73.3677 30.5632 73.0356 29.5745 73.0356 28.344V28.2488ZM74.3979 28.4099C74.3979 29.2888 74.6006 29.9944 75.0059 30.5266C75.416 31.0588 75.9629 31.325 76.6465 31.325C77.335 31.325 77.8818 31.0564 78.2871 30.5193C78.6924 29.9773 78.895 29.2205 78.895 28.2488C78.895 27.3796 78.6875 26.6765 78.2725 26.1394C77.8623 25.5974 77.3154 25.3264 76.6318 25.3264C75.9629 25.3264 75.4233 25.5925 75.0132 26.1248C74.603 26.657 74.3979 27.4187 74.3979 28.4099ZM81.6196 28.2561C81.6196 27.0403 81.9077 26.0637 82.4839 25.3264C83.0601 24.5842 83.8145 24.2131 84.7471 24.2131C85.6748 24.2131 86.4097 24.5305 86.9517 25.1653V21.0344H88.3066V32.2844H87.0615L86.9956 31.4348C86.4536 32.0989 85.6992 32.4309 84.7324 32.4309C83.8145 32.4309 83.0649 32.0549 82.4839 31.303C81.9077 30.551 81.6196 29.5696 81.6196 28.3586V28.2561ZM82.9746 28.4099C82.9746 29.3083 83.1602 30.0115 83.5312 30.5193C83.9023 31.0271 84.415 31.281 85.0693 31.281C85.9287 31.281 86.5562 30.8953 86.9517 30.1238V26.4836C86.5464 25.7366 85.9238 25.363 85.084 25.363C84.4199 25.363 83.9023 25.6194 83.5312 26.1321C83.1602 26.6448 82.9746 27.4041 82.9746 28.4099Z" fill="black"/>
</svg>
